TITLE ""
FILE "Step1_Track04.mp3" MP3
  TRACK 01 AUDIO
    TITLE "Step1_Track04_01"
    INDEX 01 00:00:00
  TRACK 02 AUDIO
    TITLE "Step1_Track04_02"
    INDEX 01 00:00:24
  TRACK 03 AUDIO
    TITLE "Step1_Track04_03"
    INDEX 01 00:01:51
  TRACK 04 AUDIO
    TITLE "Step1_Track04_04"
    INDEX 01 00:02:29
  TRACK 05 AUDIO
    TITLE "Step1_Track04_05"
    INDEX 01 00:03:26
  TRACK 06 AUDIO
    TITLE "Step1_Track04_06"
    INDEX 01 00:03:40
  TRACK 07 AUDIO
    TITLE "Step1_Track04_07"
    INDEX 01 00:05:37
  TRACK 08 AUDIO
    TITLE "Step1_Track04_08"
    INDEX 01 00:05:53
  TRACK 09 AUDIO
    TITLE "Step1_Track04_09"
    INDEX 01 00:06:50
  TRACK 10 AUDIO
    TITLE "Step1_Track04_10"
    INDEX 01 00:06:52
  TRACK 11 AUDIO
    TITLE "Step1_Track04_11"
    INDEX 01 00:08:29
  TRACK 12 AUDIO
    TITLE "Step1_Track04_12"
    INDEX 01 00:08:47
  TRACK 13 AUDIO
    TITLE "Step1_Track04_13"
    INDEX 01 00:09:46
  TRACK 14 AUDIO
    TITLE "Step1_Track04_14"
    INDEX 01 00:09:52
  TRACK 15 AUDIO
    TITLE "Step1_Track04_15"
    INDEX 01 00:11:34
  TRACK 16 AUDIO
    TITLE "Step1_Track04_16"
    INDEX 01 00:11:53
  TRACK 17 AUDIO
    TITLE "Step1_Track04_17"
    INDEX 01 00:12:49
  TRACK 18 AUDIO
    TITLE "Step1_Track04_18"
    INDEX 01 00:12:55
  TRACK 19 AUDIO
    TITLE "Step1_Track04_19"
    INDEX 01 00:14:30
  TRACK 20 AUDIO
    TITLE "Step1_Track04_20"
    INDEX 01 00:14:46
  TRACK 21 AUDIO
    TITLE "Step1_Track04_21"
    INDEX 01 00:15:45
  TRACK 22 AUDIO
    TITLE "Step1_Track04_22"
    INDEX 01 00:15:63
  TRACK 23 AUDIO
    TITLE "Step1_Track04_23"
    INDEX 01 00:17:52
  TRACK 24 AUDIO
    TITLE "Step1_Track04_24"
    INDEX 01 00:17:64
  TRACK 25 AUDIO
    TITLE "Step1_Track04_25"
    INDEX 01 00:18:69
  TRACK 26 AUDIO
    TITLE "Step1_Track04_26"
    INDEX 01 00:18:75
  TRACK 27 AUDIO
    TITLE "Step1_Track04_27"
    INDEX 01 00:20:56
  TRACK 28 AUDIO
    TITLE "Step1_Track04_28"
    INDEX 01 00:20:62
  TRACK 29 AUDIO
    TITLE "Step1_Track04_29"
    INDEX 01 00:21:69
  TRACK 30 AUDIO
    TITLE "Step1_Track04_30"
    INDEX 01 00:22:06
  TRACK 31 AUDIO
    TITLE "Step1_Track04_31"
    INDEX 01 00:24:17
  TRACK 32 AUDIO
    TITLE "Step1_Track04_32"
    INDEX 01 00:24:19
  TRACK 33 AUDIO
    TITLE "Step1_Track04_33"
    INDEX 01 00:25:08
  TRACK 34 AUDIO
    TITLE "Step1_Track04_34"
    INDEX 01 00:25:20
  TRACK 35 AUDIO
    TITLE "Step1_Track04_35"
    INDEX 01 00:27:13
  TRACK 36 AUDIO
    TITLE "Step1_Track04_36"
    INDEX 01 00:27:19
  TRACK 37 AUDIO
    TITLE "Step1_Track04_37"
    INDEX 01 00:28:22
  TRACK 38 AUDIO
    TITLE "Step1_Track04_38"
    INDEX 01 00:28:34
  TRACK 39 AUDIO
    TITLE "Step1_Track04_39"
    INDEX 01 00:30:09
  TRACK 40 AUDIO
    TITLE "Step1_Track04_40"
    INDEX 01 00:30:25
  TRACK 41 AUDIO
    TITLE "Step1_Track04_41"
    INDEX 01 00:31:19
  TRACK 42 AUDIO
    TITLE "Step1_Track04_42"
    INDEX 01 00:31:28
  TRACK 43 AUDIO
    TITLE "Step1_Track04_43"
    INDEX 01 00:33:10
